<?xml version="1.0" encoding="UTF-8" standalone="no"?>
<!DOCTYPE svg PUBLIC "-//W3C//DTD SVG 1.1//EN"
 "http://www.w3.org/Graphics/SVG/1.1/DTD/svg11.dtd">
<!-- Generated by graphviz version 2.40.1 (20161225.0304)
 -->
<!-- Title: dependencies Pages: 1 -->
<svg width="578pt" height="284pt"
 viewBox="0.00 0.00 578.00 284.00" xmlns="http://www.w3.org/2000/svg" xmlns:xlink="http://www.w3.org/1999/xlink">
<g id="graph0" class="graph" transform="scale(1 1) rotate(0) translate(4 280)">
<title>dependencies</title>
<polygon fill="#ffffff" stroke="transparent" points="-4,4 -4,-280 574,-280 574,4 -4,4"/>
<text text-anchor="start" x="264.0091" y="-42.4" font-family="sans-serif" font-weight="bold" font-size="14.00" fill="#000000">Legend</text>
<polygon fill="#ffffb3" stroke="transparent" points="51,-10 51,-30 71,-30 71,-10 51,-10"/>
<text text-anchor="start" x="74.629" y="-15.4" font-family="sans-serif" font-size="14.00" fill="#000000"> &#160;Declarations</text>
<polygon fill="#8dd3c7" stroke="transparent" points="164,-10 164,-30 184,-30 184,-10 164,-10"/>
<text text-anchor="start" x="187.7251" y="-15.4" font-family="sans-serif" font-size="14.00" fill="#000000"> &#160;Module</text>
<polygon fill="#80b1d3" stroke="transparent" points="250,-10 250,-30 270,-30 270,-10 250,-10"/>
<text text-anchor="start" x="273.7812" y="-15.4" font-family="sans-serif" font-size="14.00" fill="#000000"> &#160;Bootstrap</text>
<polygon fill="#fdb462" stroke="transparent" points="347,-10 347,-30 367,-30 367,-10 347,-10"/>
<text text-anchor="start" x="370.6732" y="-15.4" font-family="sans-serif" font-size="14.00" fill="#000000"> &#160;Providers</text>
<polygon fill="#fb8072" stroke="transparent" points="443,-10 443,-30 463,-30 463,-10 443,-10"/>
<text text-anchor="start" x="466.7258" y="-15.4" font-family="sans-serif" font-size="14.00" fill="#000000"> &#160;Exports</text>
<g id="clust1" class="cluster">
<title>cluster_NgxBootstrapCalendarModule</title>
<polygon fill="none" stroke="#000000" stroke-dasharray="1,5" points="8,-70 8,-268 562,-268 562,-70 8,-70"/>
</g>
<g id="clust2" class="cluster">
<title>cluster_NgxBootstrapCalendarModule_declarations</title>
<polygon fill="none" stroke="#000000" points="21,-78 21,-130 548,-130 548,-78 21,-78"/>
</g>
<g id="clust7" class="cluster">
<title>cluster_NgxBootstrapCalendarModule_exports</title>
<polygon fill="none" stroke="#000000" points="16,-208 16,-260 554,-260 554,-208 16,-208"/>
</g>
<!-- CalendarComponent -->
<g id="node1" class="node">
<title>CalendarComponent</title>
<polygon fill="#ffffb3" stroke="#000000" points="539.8641,-122 408.1359,-122 408.1359,-86 539.8641,-86 539.8641,-122"/>
<text text-anchor="middle" x="474" y="-99.8" font-family="Times,serif" font-size="14.00" fill="#000000">CalendarComponent</text>
</g>
<!-- NgxBootstrapCalendarModule -->
<g id="node4" class="node">
<title>NgxBootstrapCalendarModule</title>
<polygon fill="#8dd3c7" stroke="#000000" points="397.126,-187 394.126,-191 373.126,-191 370.126,-187 208.874,-187 208.874,-151 397.126,-151 397.126,-187"/>
<text text-anchor="middle" x="303" y="-164.8" font-family="Times,serif" font-size="14.00" fill="#000000">NgxBootstrapCalendarModule</text>
</g>
<!-- CalendarComponent&#45;&gt;NgxBootstrapCalendarModule -->
<g id="edge1" class="edge">
<title>CalendarComponent&#45;&gt;NgxBootstrapCalendarModule</title>
<path fill="none" stroke="#000000" d="M496.7273,-122.0225C496.7273,-139.3734 496.7273,-163 496.7273,-163 496.7273,-163 407.3099,-163 407.3099,-163"/>
<polygon fill="#000000" stroke="#000000" points="407.3099,-159.5001 397.3099,-163 407.3099,-166.5001 407.3099,-159.5001"/>
</g>
<!-- CalendarControlComponent -->
<g id="node2" class="node">
<title>CalendarControlComponent</title>
<polygon fill="#ffffb3" stroke="#000000" points="390.1428,-122 215.8572,-122 215.8572,-86 390.1428,-86 390.1428,-122"/>
<text text-anchor="middle" x="303" y="-99.8" font-family="Times,serif" font-size="14.00" fill="#000000">CalendarControlComponent</text>
</g>
<!-- CalendarControlComponent&#45;&gt;NgxBootstrapCalendarModule -->
<g id="edge2" class="edge">
<title>CalendarControlComponent&#45;&gt;NgxBootstrapCalendarModule</title>
<path fill="none" stroke="#000000" d="M303,-122.1061C303,-122.1061 303,-140.991 303,-140.991"/>
<polygon fill="#000000" stroke="#000000" points="299.5001,-140.9909 303,-150.991 306.5001,-140.991 299.5001,-140.9909"/>
</g>
<!-- CalendarModalComponent -->
<g id="node3" class="node">
<title>CalendarModalComponent</title>
<polygon fill="#ffffb3" stroke="#000000" points="197.4143,-122 28.5857,-122 28.5857,-86 197.4143,-86 197.4143,-122"/>
<text text-anchor="middle" x="113" y="-99.8" font-family="Times,serif" font-size="14.00" fill="#000000">CalendarModalComponent</text>
</g>
<!-- CalendarModalComponent&#45;&gt;NgxBootstrapCalendarModule -->
<g id="edge3" class="edge">
<title>CalendarModalComponent&#45;&gt;NgxBootstrapCalendarModule</title>
<path fill="none" stroke="#000000" d="M140.2356,-122.0225C140.2356,-139.3734 140.2356,-163 140.2356,-163 140.2356,-163 198.7906,-163 198.7906,-163"/>
<polygon fill="#000000" stroke="#000000" points="198.7907,-166.5001 208.7906,-163 198.7906,-159.5001 198.7907,-166.5001"/>
</g>
<!-- CalendarComponent  -->
<g id="node5" class="node">
<title>CalendarComponent </title>
<polygon fill="#fb8072" stroke="#000000" points="545.8645,-252 410.1355,-252 410.1355,-216 545.8645,-216 545.8645,-252"/>
<text text-anchor="middle" x="478" y="-229.8" font-family="Times,serif" font-size="14.00" fill="#000000">CalendarComponent </text>
</g>
<!-- NgxBootstrapCalendarModule&#45;&gt;CalendarComponent  -->
<g id="edge4" class="edge">
<title>NgxBootstrapCalendarModule&#45;&gt;CalendarComponent </title>
<path fill="none" stroke="#000000" stroke-dasharray="5,2" d="M397.4736,-175C427.7159,-175 453.5227,-175 453.5227,-175 453.5227,-175 453.5227,-205.9775 453.5227,-205.9775"/>
<polygon fill="#000000" stroke="#000000" points="450.0228,-205.9774 453.5227,-215.9775 457.0228,-205.9775 450.0228,-205.9774"/>
</g>
<!-- CalendarControlComponent  -->
<g id="node6" class="node">
<title>CalendarControlComponent </title>
<polygon fill="#fb8072" stroke="#000000" points="392.1425,-252 213.8575,-252 213.8575,-216 392.1425,-216 392.1425,-252"/>
<text text-anchor="middle" x="303" y="-229.8" font-family="Times,serif" font-size="14.00" fill="#000000">CalendarControlComponent </text>
</g>
<!-- NgxBootstrapCalendarModule&#45;&gt;CalendarControlComponent  -->
<g id="edge5" class="edge">
<title>NgxBootstrapCalendarModule&#45;&gt;CalendarControlComponent </title>
<path fill="none" stroke="#000000" stroke-dasharray="5,2" d="M303,-187.1061C303,-187.1061 303,-205.991 303,-205.991"/>
<polygon fill="#000000" stroke="#000000" points="299.5001,-205.9909 303,-215.991 306.5001,-205.991 299.5001,-205.9909"/>
</g>
<!-- CalendarModalComponent  -->
<g id="node7" class="node">
<title>CalendarModalComponent </title>
<polygon fill="#fb8072" stroke="#000000" points="195.9138,-252 24.0862,-252 24.0862,-216 195.9138,-216 195.9138,-252"/>
<text text-anchor="middle" x="110" y="-229.8" font-family="Times,serif" font-size="14.00" fill="#000000">CalendarModalComponent </text>
</g>
<!-- NgxBootstrapCalendarModule&#45;&gt;CalendarModalComponent  -->
<g id="edge6" class="edge">
<title>NgxBootstrapCalendarModule&#45;&gt;CalendarModalComponent </title>
<path fill="none" stroke="#000000" stroke-dasharray="5,2" d="M208.7572,-175C149.6242,-175 84.5144,-175 84.5144,-175 84.5144,-175 84.5144,-205.9775 84.5144,-205.9775"/>
<polygon fill="#000000" stroke="#000000" points="81.0145,-205.9774 84.5144,-215.9775 88.0145,-205.9775 81.0145,-205.9774"/>
</g>
</g>
</svg>
